<svg width="24" height="25" viewBox="0 0 24 25" fill="none" xmlns="http://www.w3.org/2000/svg">
<g id="Icon / Circle Check">
<path id="Vector" fill-rule="evenodd" clip-rule="evenodd" d="M12 1.69995C6.03528 1.69995 1.19995 6.53528 1.19995 12.5C1.19995 18.4647 6.03528 23.3 12 23.3C17.9647 23.3 22.8 18.4647 22.8 12.5C22.8 6.53528 17.9647 1.69995 12 1.69995ZM14.5988 9.72579C14.9074 9.32578 15.4818 9.25166 15.8818 9.56024C16.2818 9.86883 16.356 10.4433 16.0474 10.8433L12.3837 15.5926C12.2588 15.7546 12.1131 15.9436 11.9666 16.0866C11.7919 16.257 11.5034 16.4768 11.0839 16.4975C10.6645 16.5183 10.3557 16.3281 10.1651 16.1758C10.0051 16.048 9.84143 15.8742 9.70118 15.7253L8.01136 13.9331C7.66477 13.5654 7.6818 12.9866 8.04938 12.64C8.41698 12.2934 8.99592 12.3104 9.3425 12.678L10.9809 14.4156L14.5988 9.72579Z" fill="#66BB33"/>
</g>
</svg>
