<svg width="15" height="16" viewBox="0 0 15 16" fill="none" xmlns="http://www.w3.org/2000/svg">
<path id="Vector" fill-rule="evenodd" clip-rule="evenodd" d="M9.02976 1.07416C8.15159 0.308614 6.84843 0.308614 5.97025 1.07416C5.70659 1.304 5.35691 1.4074 5.0117 1.35759C3.86195 1.19171 2.76566 1.90122 2.43787 3.02335C2.33945 3.36026 2.10079 3.63763 1.78365 3.78368C0.727359 4.27012 0.186008 5.46387 0.512684 6.58634C0.610767 6.92335 0.5589 7.28662 0.370509 7.58215C-0.256957 8.56651 -0.0714984 9.86542 0.805926 10.6318C1.06936 10.862 1.22075 11.1958 1.22093 11.547C1.22151 12.7167 2.07489 13.7085 3.22449 13.8755C3.56964 13.9257 3.87623 14.1241 4.06491 14.4194C4.69335 15.4032 5.94372 15.7728 7.0005 15.2875C7.31778 15.1418 7.68226 15.1418 7.99951 15.2875C9.05626 15.7728 10.3067 15.4032 10.9351 14.4194C11.1238 14.1241 11.4303 13.9257 11.7755 13.8755C12.9251 13.7085 13.7785 12.7167 13.7791 11.547C13.7793 11.1958 13.9307 10.862 14.1941 10.6318C15.0715 9.86542 15.2569 8.56651 14.6295 7.58215C14.4411 7.28662 14.3893 6.92335 14.4873 6.58634C14.814 5.46387 14.2727 4.27012 13.2163 3.78368C12.8993 3.63763 12.6606 3.36026 12.5622 3.02335C12.2343 1.90122 11.1381 1.19171 9.98834 1.35759C9.64309 1.4074 9.29343 1.304 9.02976 1.07416ZM9.30476 6.0735C9.51909 5.79572 9.91793 5.74425 10.1958 5.95854C10.4735 6.17284 10.525 6.57175 10.3108 6.84954L7.76651 10.1477C7.67976 10.2602 7.57859 10.3914 7.47682 10.4908C7.35553 10.6091 7.15517 10.7617 6.86389 10.7761C6.57261 10.7905 6.35816 10.6584 6.22578 10.5527C6.11467 10.4639 6.00103 10.3433 5.90364 10.2398L4.73015 8.99526C4.48946 8.73992 4.50129 8.33792 4.75655 8.09726C5.01183 7.85654 5.41387 7.86836 5.65456 8.12367L6.79233 9.33034L9.30476 6.0735Z" fill="#FF2B34"/>
</svg>
